Coordinates
version=1
nRows=26
nColumns=24
inDegrees=yes

Units are S.I. units (second, meters, Newtons, ...)
Angles are in degrees.

endheader
time	pelvis_tilt	pelvis_list	pelvis_rotation	pelvis_tx	pelvis_ty	pelvis_tz	hip_flexion_r	hip_adduction_r	hip_rotation_r	knee_angle_r	ankle_angle_r	subtalar_angle_r	mtp_angle_r	hip_flexion_l	hip_adduction_l	hip_rotation_l	knee_angle_l	ankle_angle_l	subtalar_angle_l	mtp_angle_l	lumbar_extension	lumbar_bending	lumbar_rotation
      0.70700000	     -3.02335670	      7.68031836	      5.21703544	      0.04209510	      0.95999186	      0.30666665	     31.83689405	     -9.48476113	      1.02350105	     -2.14379934	      3.09548799	     -7.29232203	      4.89629119	    -25.48239326	      9.82289830	     11.83786087	      3.37117910	      5.54843167	     -7.58984998	      8.14126440	     -8.00657742	     -0.03058340	    -13.23175144
      0.71116667	     -3.10107270	      7.52887332	      5.27752167	      0.04817817	      0.95937894	      0.30697887	     31.92173225	     -9.29476327	      1.20497755	     -2.82296829	      2.97797989	     -7.29693836	      4.90746941	    -25.59218898	      9.62189898	     11.67534950	      3.09893437	      5.32271004	     -7.54486373	      8.15033918	     -7.85727159	      0.17190683	    -13.23940139
      0.71533333	     -3.21777483	      7.36875188	      5.33743339	      0.05432131	      0.95874782	      0.30733068	     32.02696514	     -9.09152672	      1.43122729	     -3.46670731	      2.78333994	     -7.33216651	      4.94215156	    -25.63944819	      9.41645552	     11.47124217	      2.78597712	      5.10876456	     -7.38377329	      8.20986478	     -7.67182445	      0.39654984	    -13.25825688
      0.71950000	     -3.29580310	      7.20137164	      5.39306350	      0.06052230	      0.95819128	      0.30768896	     32.08887862	     -8.87705567	      1.59581366	     -4.11103910	      2.52865792	     -7.37913150	      4.96838700	    -25.72412817	      9.20117964	     11.26305885	      2.46881931	      4.85726560	     -7.29305017	      8.26202433	     -7.49363148	      0.63247537	    -13.25894772
      0.72366667	     -3.40636322	      7.00897157	      5.44232867	      0.06679877	      0.95762329	      0.30808837	     32.17064539	     -8.63196445	      1.77183777	     -4.72650135	      2.20753456	     -7.43604509	      5.01652360	    -25.76067160	      8.96567544	     11.01744412	      2.13298142	      4.59328798	     -7.13427193	      8.36590601	     -7.29677724	      0.88376203	    -13.27056328
      0.72783333	     -3.52355808	      6.81998219	      5.50032741	      0.07310324	      0.95708339	      0.30851860	     32.25309528	     -8.38797772	      1.95009660	     -5.32690304	      1.77158391	     -7.65097789	      5.21550803	    -25.73998509	      8.73334233	     10.65013080	      1.69253548	      4.46737299	     -6.72342862	      8.81757548	     -7.07174367	      1.13003686	    -13.32378808
      0.73200000	     -3.59071896	      6.61825501	      5.53586013	      0.07947842	      0.95662005	      0.30893023	     32.31129563	     -8.12831791	      2.00183821	     -5.98386546	      1.39569515	     -7.59969782	      5.25109802	    -25.81562068	      8.48847187	     10.42585576	      1.35549679	      4.08036977	     -6.72692023	      8.89676201	     -6.91256764	      1.37275397	    -13.29773839
      0.73616667	     -3.69299575	      6.40834022	      5.56722053	      0.08590904	      0.95614772	      0.30936985	     32.39440156	     -7.85717337	      2.08584861	     -6.61028775	      0.96567341	     -7.59031221	      5.30763332	    -25.83438156	      8.24059177	     10.19357183	      0.98352062	      3.68741345	     -6.66276490	      9.02872655	     -6.69669779	      1.67321749	    -13.28199870
      0.74033333	     -3.81305500	      6.20326786	      5.60353704	      0.09236578	      0.95567139	      0.30985020	     32.51484095	     -7.58977504	      2.13914090	     -7.26698670	      0.44488068	     -7.70446411	      7.78903210	    -25.77621518	      7.99714120	      9.78830507	      0.50675430	      3.30684626	     -6.36414792	     14.78180689	     -6.48071534	      1.91794744	    -13.24345858
      0.74450000	     -3.89700727	      5.97750689	      5.61003417	      0.09888494	      0.95527254	      0.31033877	     32.59737353	     -7.29060585	      2.17598952	     -7.91894423	     -0.06194801	     -7.71822220	      7.79749381	    -25.78922755	      7.74107967	      9.54537678	      0.09853728	      2.85370800	     -6.36588586	     14.80162740	     -6.28360938	      2.22488598	    -13.26103822
      0.74866667	     -4.01638729	      5.74806267	      5.62272207	      0.10543549	      0.95486577	      0.31087335	     32.71541712	     -6.98446278	      2.23951855	     -8.56526374	     -0.64357250	     -7.93065141	      7.86192205	    -25.72377989	      7.48147833	      9.24646367	     -0.38833044	      2.46517692	     -6.22805339	     14.97280147	     -6.04117903	      2.52285358	    -13.31301618
      0.75283333	     -4.10145159	      5.52508796	      5.61126213	      0.11202309	      0.95451724	      0.31139967	     32.83016412	     -6.68175607	      2.23073364	     -9.27558300	     -1.13962268	     -7.91447631	      7.89549164	    -25.69592391	      7.23532497	      8.96872243	     -0.86253055	      1.94801227	     -6.17518002	     15.06643739	     -5.85822337	      2.81360725	    -13.28637620
      0.75700000	     -4.19747224	      5.30546351	      5.58895809	      0.11864948	      0.95418053	      0.31194740	     32.96776360	     -6.37699336	      2.22393175	    -10.00901777	     -1.64186377	     -7.96367979	      7.93511781	    -25.63111030	      6.99910905	      8.66825858	     -1.38285724	      1.41923769	     -6.10945048	     15.18780208	     -5.63602387	      3.11493968	    -13.26678563
      0.76116667	     -4.29575542	      5.07515080	      5.57408688	      0.12529113	      0.95387709	      0.31251458	     33.11442541	     -6.06657671	      2.18044356	    -10.75817390	     -2.18871088	     -8.08882408	      9.52733974	    -25.49775302	      6.74591397	      8.22866614	     -2.02318075	      0.95071601	     -5.82528186	     20.11714093	     -5.42344090	      3.40167181	    -13.18385328
      0.76533333	     -4.36433780	      4.86289279	      5.50833120	      0.13196472	      0.95361396	      0.31313564	     33.25693680	     -5.74489017	      2.19445255	    -11.56401483	     -2.59745234	     -8.18377786	      9.53287537	    -25.43460557	      6.53003351	      7.94489136	     -2.57888481	      0.29926870	     -5.85738514	     20.14286019	     -5.24366231	      3.70107344	    -13.21000670
      0.76950000	     -4.44262965	      4.64366959	      5.45150196	      0.13865632	      0.95338244	      0.31374033	     33.41250430	     -5.42473219	      2.17866401	    -12.38633648	     -2.99690845	     -8.28782810	      9.54325092	    -25.32492418	      6.30627015	      7.66340881	     -3.20212156	     -0.33457490	     -5.85794124	     20.20240584	     -5.04919816	      4.00767525	    -13.20252079
      0.77366667	     -4.51728318	      4.42304141	      5.37411656	      0.14536965	      0.95317989	      0.31437991	     33.57563871	     -5.09254879	      2.17131357	    -13.23750067	     -3.33883555	     -8.41014240	      9.55774342	    -25.19160296	      6.08845795	      7.36694991	     -3.87242471	     -0.99044122	     -5.84196984	     20.29649346	     -4.85911008	      4.30948755	    -13.18628673
      0.77783333	     -4.58441631	      4.20584758	      5.28892434	      0.15208961	      0.95301840	      0.31503593	     33.74009406	     -4.75884928	      2.17312919	    -14.11820053	     -3.61751485	     -8.54624641	      9.57452452	    -25.03728586	      5.87635079	      7.06369815	     -4.59032458	     -1.67536422	     -5.82424425	     20.42274274	     -4.68335801	      4.61734368	    -13.16366386
      0.78200000	     -4.65857813	      3.98225400	      5.19856689	      0.15880946	      0.95287528	      0.31572612	     33.91492139	     -4.41326459	      2.18548030	    -15.01295345	     -3.88145312	     -8.74972165	     10.22540681	    -24.82224603	      5.65457857	      6.67709493	     -5.39405002	     -2.40626752	     -5.74557914	     26.19544606	     -4.51440529	      4.91176798	    -13.11043867
      0.78616667	     -4.68232671	      3.75921853	      5.08508945	      0.16555073	      0.95282611	      0.31640994	     34.04478046	     -4.05815163	      2.19765485	    -15.94236553	     -3.98650791	     -8.88342766	     10.22457140	    -24.66568082	      5.44414827	      6.39457872	     -6.18780079	     -3.17745145	     -5.78722432	     26.21263819	     -4.39182105	      5.23997373	    -13.09651578
      0.79033333	     -4.72532104	      3.53670878	      4.96463758	      0.17228060	      0.95278362	      0.31711594	     34.19740086	     -3.69703214	      2.23620929	    -16.88525597	     -4.04359080	     -9.03393715	     10.22020227	    -24.45329481	      5.23920256	      6.11907897	     -7.04251424	     -3.96876220	     -5.82791109	     26.27099773	     -4.26301684	      5.55354309	    -13.07291454
      0.79450000	     -4.75200564	      3.31655905	      4.83713933	      0.17900800	      0.95279448	      0.31783122	     34.33053495	     -3.33231187	      2.28736506	    -17.83753751	     -4.02337724	     -9.19823444	     10.21145100	    -24.22385536	      5.03780478	      5.84423328	     -7.95628912	     -4.78782955	     -5.87456262	     26.36150543	     -4.14229975	      5.87352353	    -13.04273716
      0.79866667	     -4.76455835	      3.09648826	      4.70264806	      0.18571855	      0.95285486	      0.31855658	     34.44381874	     -2.96005611	      2.35806630	    -18.79061993	     -3.92493487	     -9.36804295	     10.19833399	    -23.97599319	      4.83852869	      5.57745809	     -8.92718397	     -5.63672519	     -5.92784403	     26.47132824	     -4.03831356	      6.20149994	    -13.01164302
      0.80283333	     -4.79099153	      2.90547033	      4.57231680	      0.19237175	      0.95290241	      0.31928184	     34.59310558	     -2.61779239	      2.43203323	    -19.80438566	     -3.68032867	     -9.43893732	      9.42638748	    -23.66445069	      4.66652369	      5.31395103	     -9.98077362	     -6.53569497	     -6.03707139	     31.19203249	     -3.92572716	      6.49072694	    -13.09314904
      0.80700000	     -4.77017319	      2.65004988	      4.43476780	      0.19906641	      0.95309110	      0.32001410	     34.63391462	     -2.20207910	      2.52202372	    -20.70193164	     -3.49314555	     -9.66625905	      9.41855301	    -23.38777192	      4.42846939	      5.06138777	    -11.05070120	     -7.45419989	     -6.09446183	     31.20684112	     -3.86548519	      6.86045046	    -12.99976496
      0.81116667	     -4.75611215	      2.41141296	      4.28752996	      0.20570197	      0.95327421	      0.32077734	     34.68867667	     -1.79116920	      2.64374626	    -21.62014741	     -3.22221531	     -9.87398871	      9.40045903	    -23.06265082	      4.21202051	      4.82325822	    -12.19751017	     -8.36062214	     -6.16533496	     31.24928922	     -3.82345815	      7.19592596	    -12.94539414
